# xmcd
#
# Track frame offsets:
# 150
# 19035
# 33182
# 45594
# 65453
# 85090
# 99014
# 113534
# 131275
# 145250
# 160823
#
# Disc length: 2384 seconds
#
#
# Revision: 4
# Processed by: cddbd v1.4PL0 Copyright (c) Steve Scherf et al.
# Submitted via: FreeRIP 2.10 
#
DISCID=78094e0b
DTITLE=Mindy McCready - I'm Not So Tough
DYEAR=1999
DGENRE=Country
TTITLE0=I'm Not So Tough
TTITLE1=Tumble And Roll
TTITLE2=All I Want Is Everything
TTITLE3=Two Different Things
TTITLE4=Dream On
TTITLE5=I've Got A Feeling
TTITLE6=Thunder And Roses
TTITLE7=Over And Over
TTITLE8=Lucky Me
TTITLE9=Hold Me
TTITLE10=Take Me Apart
EXTD=
EXTT0=
EXTT1=
EXTT2=
EXTT3=
EXTT4=
EXTT5=
EXTT6=
EXTT7=
EXTT8=
EXTT9=
EXTT10=
PLAYORDER=
